<svg width="146" height="146" viewBox="0 0 146 146" fill="none" xmlns="http://www.w3.org/2000/svg">
<path fill-rule="evenodd" clip-rule="evenodd" d="M67.4315 127.122C55.4937 128.373 40.6272 128.534 22.168 126.907L39.8333 101.674C72.8434 105.869 114.329 106.28 121.925 85.3621C121.925 93.4199 117.096 105.468 107.834 113.409C102.838 117.692 94.1114 122.422 79.4931 125.326L81.6222 118.773L73.1705 124.914L64.7189 118.773L67.4315 127.122Z" fill="#CE1126"/>
<path d="M68.5193 123.962L73.1801 127.371L77.8621 123.991L76.0606 129.477L80.7214 132.886L74.9472 132.868L73.1457 138.354L71.3786 132.857L65.6044 132.839L70.2864 129.459L68.5193 123.962Z" fill="#FCD116"/>
<path d="M35.6734 94.3413C89.4436 101.697 117.362 96.1516 120.518 81.6078C110.213 88.8142 57.028 73.9523 15.8146 60.5778L35.6734 94.3413Z" fill="#0038A8"/>
<mask id="mask0_18_332" style="mask-type:alpha" maskUnits="userSpaceOnUse" x="22" y="26" width="100" height="55">
<path d="M64.7112 26.8615L109.419 45.1097C109.419 45.1097 121.459 77.9437 121.456 77.9437C111.15 85.1501 63.5304 72.6303 22.317 59.2558L64.7112 26.8615Z" fill="#3041DC"/>
</mask>
<g mask="url(#mask0_18_332)">
<path d="M73.1754 81.4027L73.1736 81.3958L68.606 40.7428L73.1754 81.4027Z" fill="#FCD116"/>
<path d="M73.1722 81.3906L66.3576 43.0469L63.7485 45.7207L73.1722 81.3906Z" fill="#FCD116"/>
<path d="M73.1754 81.4027L73.1775 81.3958L77.7451 40.7428L73.1754 36.0601L68.606 40.7428L73.1754 81.4027Z" fill="#FCD116"/>
<path d="M73.1789 81.3906L79.9935 43.0469L82.6025 45.7207L73.1789 81.3906Z" fill="#FCD116"/>
<path d="M74.1991 80.9368L74.1929 80.9332L42.2171 55.4169L74.1991 80.9368Z" fill="#FCD116"/>
<path d="M74.1883 80.9305L42.2565 58.6361L42.3023 62.3716L74.1883 80.9305Z" fill="#FCD116"/>
<path d="M74.1991 80.9368L74.1957 80.9305L48.6794 48.9547L42.137 48.8747L42.2171 55.4169L74.1991 80.9368Z" fill="#FCD116"/>
<path d="M74.193 80.9258L51.8986 48.9941L55.6341 49.0398L74.193 80.9258Z" fill="#FCD116"/>
<path d="M72.3163 80.9368L72.3225 80.9332L104.298 55.4169L72.3163 80.9368Z" fill="#FCD116"/>
<path d="M72.3271 80.9305L104.259 58.6361L104.213 62.3716L72.3271 80.9305Z" fill="#FCD116"/>
<path d="M72.3163 80.9368L72.3197 80.9305L97.836 48.9547L104.378 48.8747L104.298 55.4169L72.3163 80.9368Z" fill="#FCD116"/>
<path d="M72.3224 80.9258L94.6168 48.9941L90.8813 49.0398L72.3224 80.9258Z" fill="#FCD116"/>
<path d="M71.7033 79.9303L71.7102 79.9321L112.363 84.4997L71.7033 79.9303Z" fill="#FCD116"/>
<path d="M71.7154 79.9335L110.059 86.7481L107.385 89.3572L71.7154 79.9335Z" fill="#FCD116"/>
<path d="M71.7033 79.9303L71.7102 79.9282L112.363 75.3607L117.046 79.9303L112.363 84.4997L71.7033 79.9303Z" fill="#FCD116"/>
<path d="M71.7154 79.9269L110.059 73.1122L107.385 70.5032L71.7154 79.9269Z" fill="#FCD116"/>
<circle cx="73.1756" cy="79.9303" r="21.0055" fill="#FCD116"/>
</g>
<path d="M11.9885 33.5838L17.6391 34.7722L20.5154 29.7654L21.1313 35.5067L26.7819 36.695L21.512 39.055L22.1279 44.7962L18.255 40.5135L12.985 42.8734L15.8614 37.8666L11.9885 33.5838Z" fill="#FCD116"/>
<path fill-rule="evenodd" clip-rule="evenodd" d="M47.3312 30.414C58.4378 24.3343 80.2219 14.7545 132.091 24.799C132.425 24.799 132.751 24.9063 133.03 25.1078C133.309 25.3092 133.528 25.5961 133.662 25.933C133.794 26.27 133.835 26.6424 133.778 27.0044C133.722 27.3665 133.57 27.7025 133.343 27.9711L129.197 32.8696L127.894 33.1324L122.765 24.0315L121.565 34.4092L111.325 36.4751L120.824 40.823L120.564 43.0684L118.598 45.3909C118.278 45.7693 117.89 46.071 117.459 46.2772C117.028 46.4834 116.563 46.5896 116.093 46.5894C114.751 46.3525 113.224 46.182 111.78 46.0207L111.78 46.0207C110.727 45.9031 109.717 45.7903 108.854 45.6602C100.883 44.4578 92.3231 43.5166 83.8667 43.0636L73.1746 32.3715L62.4005 43.1455C44.9288 44.4384 31.0606 49.2229 28.7382 60.1026C26.4364 55.0148 33.196 38.1516 47.3312 30.414Z" fill="url(#paint0_linear_18_332)"/>
<path d="M124.037 30.3358L126.872 35.3661L132.532 34.2242L128.624 38.475L131.459 43.5052L126.209 41.1021L122.301 45.3528L122.964 39.6168L117.713 37.2137L123.374 36.0718L124.037 30.3358Z" fill="#FCD116"/>
<defs>
<linearGradient id="paint0_linear_18_332" x1="37.2022" y1="61.0482" x2="61.2153" y2="-3.33079" gradientUnits="userSpaceOnUse">
<stop offset="0.08" stop-color="#9945FF"/>
<stop offset="0.3" stop-color="#8752F3"/>
<stop offset="0.5" stop-color="#5497D5"/>
<stop offset="0.6" stop-color="#43B4CA"/>
<stop offset="0.72" stop-color="#28E0B9"/>
<stop offset="0.97" stop-color="#19FB9B"/>
</linearGradient>
</defs>
</svg>
