<?xml version="1.0" standalone="no"?>
<!DOCTYPE svg PUBLIC "-//W3C//DTD SVG 20010904//EN"
 "http://www.w3.org/TR/2001/REC-SVG-20010904/DTD/svg10.dtd">
<svg version="1.0" xmlns="http://www.w3.org/2000/svg"
 width="584.000000pt" height="584.000000pt" viewBox="0 0 584.000000 584.000000"
 preserveAspectRatio="xMidYMid meet">
<metadata>
Created by potrace 1.14, written by Peter Selinger 2001-2017
</metadata>
<g transform="translate(0.000000,584.000000) scale(0.100000,-0.100000)"
fill="#000000" stroke="none">
<path d="M3567 5024 c-1 -1 -72 -5 -157 -8 -85 -4 -177 -9 -205 -11 -96 -9
-230 -26 -280 -35 -27 -6 -68 -12 -90 -16 -88 -13 -276 -58 -395 -95 -205 -65
-507 -202 -637 -290 -287 -193 -512 -480 -621 -791 -39 -108 -58 -236 -45
-298 l9 -45 22 65 c91 269 405 468 877 555 50 10 98 19 109 21 17 3 38 6 161
20 28 4 59 8 70 9 11 1 39 3 63 4 43 1 48 5 241 199 109 108 208 206 220 216
21 19 21 19 232 -193 116 -116 216 -211 222 -212 7 0 23 -2 37 -4 14 -1 75 -6
135 -9 61 -4 124 -9 140 -11 17 -2 62 -7 100 -10 39 -4 84 -8 100 -10 17 -2
57 -7 90 -10 67 -7 88 -10 195 -24 41 -6 95 -13 120 -16 25 -3 56 -8 70 -10
14 -2 52 -7 85 -11 33 -3 98 -12 144 -18 76 -11 86 -11 120 6 55 29 122 119
129 173 4 40 2 45 -19 54 -13 5 -58 25 -99 44 -41 19 -112 52 -157 73 -46 21
-83 40 -83 44 0 3 88 23 195 44 107 21 195 41 196 45 0 3 2 13 3 21 2 8 6 44
10 80 4 36 9 79 11 95 13 95 17 134 21 164 5 47 10 48 32 4 10 -21 53 -99 95
-173 63 -113 80 -136 101 -138 30 -4 26 -7 134 121 67 80 82 105 82 132 0 47
-33 69 -127 85 -43 7 -82 14 -88 16 -26 5 -134 24 -170 29 -22 3 -51 8 -65 10
-14 3 -43 7 -65 10 -22 3 -51 8 -65 10 -14 3 -41 7 -60 9 -70 9 -127 17 -151
21 -13 2 -54 6 -91 10 -37 3 -77 8 -90 10 -13 2 -61 6 -108 10 -47 4 -101 8
-120 10 -88 9 -577 24 -583 19z"/>
<path d="M767 4557 c-26 -45 -51 -88 -55 -95 -7 -10 -30 -8 -111 9 -56 11
-104 19 -107 17 -2 -2 21 -31 52 -64 97 -104 94 -90 30 -199 -30 -52 -54 -95
-51 -95 4 0 73 30 147 64 l58 26 37 -42 c64 -70 125 -134 120 -123 -5 9 -11
59 -22 176 l-4 46 102 46 c60 27 96 48 87 51 -25 10 -154 37 -172 37 -9 0 -21
6 -26 12 -9 10 -19 84 -25 179 -1 14 -4 29 -7 31 -3 3 -26 -32 -53 -76z"/>
<path d="M4959 4615 c0 -5 -2 -19 -3 -30 -2 -11 -6 -54 -10 -95 -4 -42 -10
-81 -14 -86 -4 -6 -51 -19 -105 -29 -54 -10 -99 -21 -101 -24 -3 -4 30 -22 72
-40 114 -50 123 -57 118 -89 -3 -15 -7 -52 -11 -82 -3 -30 -8 -68 -11 -85 -5
-27 3 -21 74 54 l79 85 34 -14 c19 -7 64 -28 102 -47 37 -18 67 -30 67 -26 0
7 -24 51 -78 146 -12 21 -22 41 -22 46 0 5 31 42 70 82 38 41 69 77 70 81 0 4
-10 5 -22 2 -13 -3 -32 -6 -43 -8 -11 -2 -45 -9 -77 -16 -31 -7 -62 -10 -70
-7 -7 2 -22 22 -33 43 -35 69 -85 149 -86 139z"/>
<path d="M2830 4298 c-53 -55 -88 -99 -85 -108 2 -8 6 -42 10 -75 7 -69 11
-107 21 -185 4 -30 8 -66 9 -80 12 -124 18 -176 20 -180 2 -3 6 -41 10 -85 3
-44 8 -82 11 -84 8 -8 -19 -31 -37 -31 -19 0 -24 17 -53 190 -15 85 -52 295
-60 337 -3 11 -8 42 -11 67 -4 25 -11 46 -15 46 -6 0 -82 -79 -94 -98 -3 -5 2
-33 10 -63 9 -30 19 -70 24 -89 5 -19 31 -119 58 -222 l49 -187 -36 -12 c-20
-6 -60 -22 -90 -36 -32 -14 -57 -20 -60 -14 -3 5 -69 118 -146 250 l-140 241
-74 0 -73 0 18 -27 c9 -16 59 -86 109 -158 50 -71 107 -152 126 -180 19 -27
55 -79 79 -114 43 -61 44 -64 25 -77 -10 -8 -22 -14 -25 -14 -3 0 -109 128
-234 285 -127 159 -235 285 -244 286 -10 0 -69 1 -132 2 l-115 2 3 -130 c2
-145 -4 -131 92 -205 25 -19 52 -40 60 -47 8 -7 103 -82 210 -168 107 -86 199
-162 204 -169 7 -9 4 -19 -7 -30 -15 -16 -18 -16 -44 1 -15 10 -32 21 -38 26
-16 13 -154 110 -278 194 -62 42 -128 89 -148 105 -20 15 -40 28 -43 28 -3 0
-6 -32 -6 -70 l0 -70 53 -34 c28 -18 70 -43 92 -55 22 -12 63 -35 90 -52 28
-16 57 -32 65 -36 8 -3 22 -12 30 -18 32 -27 120 -66 191 -86 91 -26 399 -109
419 -114 8 -2 71 -17 140 -35 69 -18 132 -33 141 -35 14 -3 118 -27 179 -42
14 -3 30 -7 35 -8 6 -2 62 -14 125 -28 174 -39 392 -81 550 -107 36 -5 79 -12
95 -15 56 -9 233 -30 350 -40 117 -11 400 -3 414 11 3 3 -34 43 -83 90 -58 56
-94 83 -105 80 -9 -3 -38 -8 -66 -11 -27 -3 -68 -7 -90 -10 -22 -2 -103 -11
-180 -20 -77 -8 -158 -17 -180 -20 -87 -9 -151 -17 -171 -20 -17 -3 -23 3 -27
23 -3 15 -4 28 -2 30 3 3 309 58 425 77 19 4 77 14 128 23 l93 17 -53 52 c-50
50 -55 52 -88 43 -76 -19 -379 -99 -447 -118 l-71 -20 -28 66 c-15 37 -31 71
-36 77 -19 21 -4 42 55 76 34 20 127 75 207 121 80 47 164 96 188 108 l42 24
0 74 0 74 -27 -18 c-16 -9 -73 -49 -128 -87 -55 -39 -140 -99 -190 -133 -49
-35 -94 -66 -100 -71 -5 -4 -29 -21 -53 -37 l-43 -29 -20 20 -20 20 58 47 c32
26 65 52 73 59 8 7 113 90 233 185 l217 174 1 51 c1 29 2 88 3 132 l1 80 -130
-1 -130 -1 -147 -184 c-81 -101 -151 -189 -155 -194 -4 -6 -44 -54 -87 -108
-78 -97 -79 -98 -99 -79 -19 19 -19 20 10 63 15 24 32 49 36 54 5 6 39 55 77
110 38 55 74 105 79 112 6 6 26 35 46 65 19 29 51 76 70 103 l35 50 -66 3
c-75 3 -87 -3 -119 -65 -11 -21 -29 -54 -41 -73 -11 -19 -32 -55 -46 -80 -38
-67 -159 -274 -162 -278 -2 -2 -45 14 -95 35 -78 32 -91 41 -88 58 2 11 34
134 71 273 37 140 66 257 64 262 -6 16 -90 101 -95 96 -5 -5 -18 -65 -29 -136
-3 -19 -12 -66 -19 -105 -8 -38 -19 -97 -24 -130 -6 -33 -13 -73 -16 -90 -3
-16 -11 -63 -17 -102 -9 -55 -16 -73 -27 -73 -34 0 -44 16 -37 61 3 24 8 69
11 99 5 57 14 136 20 180 2 14 6 52 9 85 4 33 8 76 11 95 2 19 7 60 10 90 3
30 8 72 11 92 5 35 1 41 -83 128 -48 49 -91 90 -96 90 -5 0 -48 -42 -97 -92z"/>
<path d="M656 3378 c9 -18 28 -50 41 -71 13 -21 32 -53 42 -70 10 -18 109
-187 221 -377 112 -190 262 -445 334 -567 l130 -222 50 -10 c28 -6 80 -13 116
-17 36 -3 72 -7 80 -9 8 -1 42 -6 75 -9 33 -4 74 -9 90 -11 17 -2 62 -7 100
-11 39 -3 84 -8 100 -9 17 -2 62 -6 100 -10 39 -3 84 -8 100 -10 17 -2 77 -7
135 -10 58 -4 121 -8 140 -10 220 -22 824 -22 1050 0 185 17 188 17 305 35
281 41 545 131 701 237 115 79 200 183 239 293 16 46 14 60 -8 42 -7 -6 -49
-21 -92 -33 -69 -20 -104 -23 -260 -24 -99 0 -214 4 -255 8 -41 5 -97 10 -125
13 -27 3 -104 14 -170 25 -66 11 -136 22 -155 25 -104 15 -537 107 -750 159
-80 20 -153 37 -164 40 -379 90 -1123 304 -1828 526 -191 60 -350 109 -353
109 -3 0 2 -15 11 -32z"/>
<path d="M4856 2373 c-127 -269 -406 -461 -830 -573 -87 -23 -243 -55 -321
-65 -27 -4 -61 -9 -75 -11 -14 -2 -52 -7 -85 -10 -33 -3 -71 -7 -84 -9 -152
-26 -900 -26 -1187 0 -27 2 -83 7 -124 10 -41 4 -100 9 -130 11 -30 3 -73 6
-95 8 -45 4 -148 16 -183 21 -13 2 -52 7 -87 10 -62 7 -64 6 -81 -22 -10 -15
-21 -30 -25 -33 -3 -3 -25 -34 -49 -70 -24 -36 -46 -67 -49 -70 -3 -3 -20 -25
-36 -50 -17 -24 -70 -101 -118 -170 -320 -455 -408 -583 -404 -586 1 -1 41 -5
87 -8 47 -3 114 -8 150 -11 364 -31 1039 -36 1340 -10 25 2 83 7 130 10 47 4
88 9 91 10 6 4 -75 266 -93 298 -5 11 -7 21 -4 24 2 3 77 -48 166 -112 95 -69
166 -115 175 -111 8 3 78 52 157 109 178 129 172 126 162 96 -4 -13 -22 -70
-40 -127 l-32 -103 26 4 c15 3 59 12 97 22 39 9 77 18 85 20 108 23 331 97
457 151 231 99 397 208 549 359 270 269 439 613 478 973 4 28 5 52 3 52 -2 0
-11 -17 -21 -37z"/>
<path d="M2762 817 c53 -167 50 -150 25 -170 -12 -10 -29 -24 -39 -32 -9 -7
-40 -29 -69 -49 -30 -20 -49 -36 -44 -37 6 0 57 -2 115 -2 l105 -2 36 -110 36
-110 33 105 c18 58 37 108 42 111 4 3 53 5 109 4 55 -1 102 2 105 7 3 4 1 8
-5 8 -5 0 -16 6 -23 13 -7 7 -43 34 -80 60 l-66 48 34 101 c33 100 41 134 26
113 -9 -13 -167 -125 -177 -125 -5 0 -117 80 -150 108 -29 24 -32 18 -13 -41z"/>
</g>
</svg>
